<svg width="24" height="24" viewBox="0 0 24 24" fill="none" xmlns="http://www.w3.org/2000/svg">
<path d="M6.44336 22.6719C6.05273 22.6719 5.74349 22.5449 5.51562 22.291C5.29427 22.0436 5.18359 21.7018 5.18359 21.2656V4.23438C5.18359 3.26432 5.43099 2.52865 5.92578 2.02734C6.42057 1.52604 7.14974 1.27539 8.11328 1.27539H15.877C16.8405 1.27539 17.5697 1.52604 18.0645 2.02734C18.5592 2.52865 18.8066 3.26432 18.8066 4.23438V21.2656C18.8066 21.7018 18.6927 22.0436 18.4648 22.291C18.2435 22.5449 17.9408 22.6719 17.5566 22.6719C17.2897 22.6719 17.0456 22.5905 16.8242 22.4277C16.6029 22.2715 16.2806 21.9883 15.8574 21.5781L12.0781 17.8477C12.026 17.7891 11.9707 17.7891 11.9121 17.8477L8.14258 21.5781C7.7194 21.9883 7.39388 22.2715 7.16602 22.4277C6.94466 22.5905 6.70378 22.6719 6.44336 22.6719ZM7.37109 19.4883L11.3555 15.6211C11.5638 15.4258 11.7786 15.3281 12 15.3281C12.2214 15.3281 12.4329 15.4258 12.6348 15.6211L16.6289 19.4883C16.694 19.5534 16.7559 19.5762 16.8145 19.5566C16.8796 19.5436 16.9121 19.4883 16.9121 19.3906V4.3418C16.9121 3.94466 16.8112 3.65169 16.6094 3.46289C16.4141 3.26758 16.1211 3.16992 15.7305 3.16992H8.26953C7.8724 3.16992 7.57292 3.26758 7.37109 3.46289C7.17578 3.65169 7.07812 3.94466 7.07812 4.3418V19.3906C7.07812 19.4883 7.10742 19.5436 7.16602 19.5566C7.23112 19.5762 7.29948 19.5534 7.37109 19.4883Z" fill="black"/>
</svg>
