<svg width="24" height="24" viewBox="0 0 24 24" fill="none" xmlns="http://www.w3.org/2000/svg">
<path d="M7.3418 22.8379C6.95117 22.8379 6.64518 22.7109 6.42383 22.457C6.20898 22.2031 6.10156 21.8581 6.10156 21.4219V19.0195H5.57422C4.63021 19.0195 3.81966 18.8372 3.14258 18.4727C2.47201 18.1081 1.95443 17.5872 1.58984 16.9102C1.23177 16.2266 1.05273 15.3997 1.05273 14.4297V6.85156C1.05273 5.88151 1.23177 5.05794 1.58984 4.38086C1.94792 3.69727 2.46549 3.17318 3.14258 2.80859C3.82617 2.44401 4.65951 2.26172 5.64258 2.26172H18.3477C19.3242 2.26172 20.1543 2.44401 20.8379 2.80859C21.5215 3.17318 22.0423 3.69727 22.4004 4.38086C22.7585 5.05794 22.9375 5.88151 22.9375 6.85156V14.4297C22.9375 15.3997 22.7585 16.2266 22.4004 16.9102C22.0423 17.5872 21.5215 18.1081 20.8379 18.4727C20.1543 18.8372 19.3242 19.0195 18.3477 19.0195H12.3125L8.97266 21.9785C8.64062 22.2715 8.35417 22.4863 8.11328 22.623C7.8724 22.7663 7.61523 22.8379 7.3418 22.8379ZM7.82031 20.6797L10.916 17.6133C11.1243 17.4049 11.3164 17.2682 11.4922 17.2031C11.6745 17.1315 11.9154 17.0957 12.2148 17.0957H18.2891C19.2135 17.0957 19.8971 16.8678 20.3398 16.4121C20.7891 15.9499 21.0137 15.2663 21.0137 14.3613V6.91016C21.0137 6.01172 20.7891 5.33464 20.3398 4.87891C19.8971 4.41667 19.2135 4.18555 18.2891 4.18555H5.69141C4.77344 4.18555 4.08984 4.41667 3.64062 4.87891C3.19792 5.33464 2.97656 6.01172 2.97656 6.91016V14.3613C2.97656 15.2663 3.19792 15.9499 3.64062 16.4121C4.08984 16.8678 4.77344 17.0957 5.69141 17.0957H7.0293C7.30273 17.0957 7.5013 17.1576 7.625 17.2812C7.75521 17.3984 7.82031 17.6035 7.82031 17.8965V20.6797ZM7.24414 9.61523C7.24414 9.0293 7.44271 8.54753 7.83984 8.16992C8.23698 7.79232 8.73503 7.60352 9.33398 7.60352C9.99154 7.60352 10.5189 7.83464 10.916 8.29688C11.3197 8.75911 11.5215 9.33203 11.5215 10.0156C11.5215 10.6146 11.4173 11.1419 11.209 11.5977C11.0007 12.0469 10.737 12.4245 10.418 12.7305C10.1055 13.0299 9.77995 13.2578 9.44141 13.4141C9.10938 13.5638 8.81315 13.6387 8.55273 13.6387C8.40299 13.6387 8.2793 13.5964 8.18164 13.5117C8.09049 13.4206 8.04492 13.3132 8.04492 13.1895C8.04492 13.0658 8.07747 12.9648 8.14258 12.8867C8.21419 12.8021 8.33789 12.7402 8.51367 12.7012C8.74805 12.6361 8.97917 12.5384 9.20703 12.4082C9.44141 12.2715 9.65299 12.1022 9.8418 11.9004C10.0306 11.6986 10.1771 11.4674 10.2812 11.207H10.1738C10.0436 11.3698 9.88086 11.4805 9.68555 11.5391C9.49023 11.5911 9.2819 11.6172 9.06055 11.6172C8.51367 11.6172 8.07422 11.4251 7.74219 11.041C7.41016 10.6569 7.24414 10.1816 7.24414 9.61523ZM12.5371 9.61523C12.5371 9.0293 12.7357 8.54753 13.1328 8.16992C13.5365 7.79232 14.0378 7.60352 14.6367 7.60352C15.2943 7.60352 15.8216 7.83464 16.2188 8.29688C16.6224 8.75911 16.8242 9.33203 16.8242 10.0156C16.8242 10.6146 16.7201 11.1419 16.5117 11.5977C16.3034 12.0469 16.0397 12.4245 15.7207 12.7305C15.4017 13.0299 15.0729 13.2578 14.7344 13.4141C14.3958 13.5638 14.0996 13.6387 13.8457 13.6387C13.696 13.6387 13.5755 13.5964 13.4844 13.5117C13.3932 13.4206 13.3477 13.3132 13.3477 13.1895C13.3477 13.0658 13.3802 12.9648 13.4453 12.8867C13.5104 12.8021 13.6309 12.7402 13.8066 12.7012C14.041 12.6361 14.2721 12.5384 14.5 12.4082C14.7344 12.2715 14.946 12.1022 15.1348 11.9004C15.3236 11.6986 15.4701 11.4674 15.5742 11.207H15.4668C15.3431 11.3698 15.1803 11.4805 14.9785 11.5391C14.7832 11.5911 14.5781 11.6172 14.3633 11.6172C13.8099 11.6172 13.3672 11.4251 13.0352 11.041C12.7031 10.6569 12.5371 10.1816 12.5371 9.61523Z" fill="black"/>
</svg>
